<svg width="193" height="192" viewBox="0 0 193 192" fill="none" xmlns="http://www.w3.org/2000/svg">
<path d="M76.606 185.426C89.1345 160.738 107.71 152.586 125.028 146.691C133.547 143.791 139.035 140.267 142.412 136.469M51.0245 90.3117C49.0424 88.5098 44.102 86.5642 41.2075 82.1785M41.2075 82.1785C40.1559 80.5852 39.3744 78.6697 39.1029 76.3221C37.8623 65.5936 41.3637 58.5638 44.3637 54.6562C45.7964 52.7901 48.3595 53.8695 48.7212 56.1942C48.9778 57.8433 49.3427 59.7151 49.8584 61.5714C51.605 67.8591 66.5975 68.5173 70.6636 72.6498C71.027 73.0192 71.5818 73.1848 72.0555 72.9746C77.1824 70.6994 88.2842 68.0671 97.7608 73.3628C106.187 78.0713 111.036 86.061 113.097 91.1146M41.2075 82.1785C32.2907 96.759 17.7636 100.808 4.8689 99.3482M122.342 103.041C123.519 103.901 124.821 104.733 126.251 105.498C127.618 106.23 129.127 106.662 130.639 107.003C145.796 110.423 147.137 116.48 147.137 124.213C147.137 128.332 145.901 132.547 142.412 136.469M122.342 103.041C118.517 100.244 116.015 97.1399 114.713 95.0008C114.173 94.1138 113.848 93.1215 113.495 92.1452C113.376 91.818 113.244 91.4737 113.097 91.1146M122.342 103.041C99.5622 116.588 105.645 125.346 106.253 128.509C106.861 131.672 112.78 139.823 118.904 139.823C125.028 139.823 136.115 141.632 142.412 136.469M93.679 71.1008C104.097 54.1553 122.28 54.4347 131.445 56.9901C132.163 57.1903 132.357 58.0895 131.832 58.6181C122.092 68.4119 124.581 71.0048 123.908 75.3818C123.209 79.9248 122.818 89.811 113.097 91.1146" stroke="white" style="stroke:white;stroke-opacity:1;" stroke-width="6" stroke-linecap="round"/>
<ellipse cx="74.4419" cy="101.99" rx="5.77832" ry="8.39374" fill="white" style="fill:white;fill-opacity:1;"/>
<ellipse cx="121.125" cy="123.157" rx="3.42341" ry="4.97293" fill="white" style="fill:white;fill-opacity:1;"/>
<ellipse cx="131.646" cy="123.157" rx="3.42341" ry="4.97293" fill="white" style="fill:white;fill-opacity:1;"/>
<circle cx="96.5833" cy="95.8853" r="92.8386" stroke="white" style="stroke:white;stroke-opacity:1;" stroke-width="6"/>
</svg>
